<svg xmlns="http://www.w3.org/2000/svg" xmlns:xlink="http://www.w3.org/1999/xlink" width="29.604px" height="28.663px" viewBox="407.886 394.618 29.604 28.663">
	<g>
	    <path d="M436.939,420.076c0.733,0.733,0.733,1.922,0,2.655c-0.732,0.732-1.921,0.732-2.654,0l-4.761-4.761
	        c-0.049-0.049-0.069-0.115-0.112-0.17c-2.279,1.908-5.178,3.1-8.382,3.1c-6.036,0.001-11.296-4.11-12.754-9.968
	        s1.263-11.955,6.596-14.783c5.333-2.828,11.906-1.659,15.937,2.833s4.483,11.154,1.097,16.15c0.09,0.063,0.193,0.102,0.273,0.182
	        L436.939,420.076z M421.03,398.373c-3.354,0-6.453,1.79-8.129,4.695c-1.677,2.905-1.676,6.483,0,9.387
	        c1.677,2.904,4.776,4.693,8.13,4.693c3.354-0.001,6.453-1.79,8.129-4.695c1.677-2.904,1.676-6.483-0.001-9.387
	        C427.482,400.162,424.384,398.373,421.03,398.373"/>
	</g>
</svg>