<?xml version="1.0" encoding="utf-8"?>
<!-- Generator: Adobe Illustrator 15.1.0, SVG Export Plug-In  -->
<!DOCTYPE svg PUBLIC "-//W3C//DTD SVG 1.1//EN" "http://www.w3.org/Graphics/SVG/1.1/DTD/svg11.dtd" [
	<!ENTITY ns_flows "http://ns.adobe.com/Flows/1.0/">
]>
<svg version="1.1"
	 xmlns="http://www.w3.org/2000/svg" xmlns:xlink="http://www.w3.org/1999/xlink" xmlns:a="http://ns.adobe.com/AdobeSVGViewerExtensions/3.0/"
	 x="0px" y="0px" width="172px" height="47px" viewBox="0 0 172 47" enable-background="new 0 0 172 47" xml:space="preserve">
<defs>
</defs>
<g>
	<defs>
		<rect id="SVGID_1_" width="172.284" height="47.002"/>
	</defs>
	<clipPath id="SVGID_2_">
		<use xlink:href="#SVGID_1_"  overflow="visible"/>
	</clipPath>
	<path clip-path="url(#SVGID_2_)" fill="#FFFFFF" d="M62.695,39.371v-0.167c0.003-1.101,0.005-2.349-0.859-3.214
		c-0.532-0.531-1.294-0.812-2.202-0.812h-2.993v8.571h2.993c0.908,0,1.67-0.28,2.202-0.813c0.864-0.865,0.862-2.27,0.859-3.398
		V39.371z M61.473,39.486c0.001,0.921,0.002,2.069-0.495,2.585c-0.359,0.37-0.848,0.55-1.494,0.55h-1.62v-6.313h1.62
		c0.646,0,1.135,0.179,1.494,0.549c0.497,0.517,0.496,1.475,0.495,2.401v0.113V39.486z"/>
	<path clip-path="url(#SVGID_2_)" fill="#FFFFFF" d="M65.754,35.179l-3.154,8.571h1.304l0.658-1.86h3.352l0.659,1.86h1.304
		l-3.143-8.571H65.754z M67.54,40.783h-2.588l1.304-3.659L67.54,40.783z"/>
	<polygon clip-path="url(#SVGID_2_)" fill="#FFFFFF" points="74.657,35.179 68.673,35.179 68.673,36.308 71.054,36.308 
		71.054,43.75 72.276,43.75 72.276,36.308 74.657,36.308 	"/>
	<path clip-path="url(#SVGID_2_)" fill="#FFFFFF" d="M76.608,35.179l-3.155,8.571h1.304l0.659-1.86h3.351l0.659,1.86h1.304
		l-3.143-8.571H76.608z M78.392,40.783h-2.588l1.304-3.659L78.392,40.783z"/>
	<polygon clip-path="url(#SVGID_2_)" fill="#FFFFFF" points="86.264,41.357 82.159,35.178 81.063,35.178 81.063,43.75 82.285,43.75 
		82.285,37.55 86.39,43.75 87.486,43.75 87.486,35.178 86.264,35.178 	"/>
	<path clip-path="url(#SVGID_2_)" fill="#FFFFFF" d="M91.683,36.238c0.934,0,1.617,0.575,1.832,1.542l0.03,0.134h1.219l-0.034-0.2
		c-0.265-1.583-1.462-2.605-3.047-2.605c-0.862,0-1.633,0.313-2.225,0.905c-0.825,0.825-0.825,1.703-0.825,3.45
		c0,1.748,0,2.626,0.825,3.451c0.584,0.583,1.374,0.905,2.225,0.905c0.898,0,1.724-0.356,2.321-1.003
		c0.527-0.563,0.752-1.233,0.752-2.243v-1.479h-3.245v1.118h2.023v0.452c0,0.619-0.123,1.019-0.423,1.382
		c-0.338,0.408-0.858,0.643-1.429,0.643c-0.501,0-0.975-0.191-1.299-0.526c-0.467-0.478-0.529-0.976-0.529-2.7
		c0-1.716,0.063-2.211,0.53-2.688C90.715,36.434,91.188,36.238,91.683,36.238"/>
	<path clip-path="url(#SVGID_2_)" fill="#FFFFFF" d="M100.917,36.238c0.909,0,1.576,0.571,1.785,1.528l0.029,0.137h1.247
		l-0.037-0.203c-0.287-1.599-1.445-2.592-3.024-2.592c-0.851,0-1.641,0.321-2.225,0.905c-0.825,0.825-0.825,1.703-0.825,3.45
		c0,1.748,0,2.626,0.825,3.451c0.584,0.583,1.374,0.905,2.225,0.905c1.591,0,2.75-0.994,3.024-2.594l0.035-0.201h-1.222
		l-0.028,0.136c-0.209,0.958-0.886,1.529-1.81,1.529c-0.501,0-0.975-0.191-1.299-0.526c-0.466-0.478-0.529-0.976-0.529-2.7
		s0.063-2.223,0.53-2.7C99.942,36.43,100.416,36.238,100.917,36.238"/>
	<path clip-path="url(#SVGID_2_)" fill="#FFFFFF" d="M107.701,35.108c-0.862,0-1.632,0.313-2.225,0.905
		c-0.825,0.825-0.825,1.702-0.825,3.45s0,2.626,0.825,3.451c0.593,0.591,1.362,0.905,2.225,0.905c0.863,0,1.634-0.314,2.226-0.905
		c0.825-0.825,0.825-1.703,0.825-3.451s0-2.625-0.825-3.45C109.335,35.422,108.564,35.108,107.701,35.108 M109.529,39.464
		c0,1.716-0.062,2.211-0.528,2.689c-0.331,0.342-0.806,0.537-1.3,0.537c-0.493,0-0.968-0.195-1.299-0.539
		c-0.467-0.477-0.527-0.972-0.527-2.688s0.061-2.211,0.528-2.688c0.33-0.342,0.805-0.537,1.298-0.537c0.494,0,0.969,0.195,1.3,0.537
		C109.468,37.253,109.529,37.748,109.529,39.464"/>
	<polygon clip-path="url(#SVGID_2_)" fill="#FFFFFF" points="117.1,41.357 112.995,35.178 111.898,35.178 111.898,43.75 
		113.121,43.75 113.121,37.55 117.225,43.75 118.322,43.75 118.322,35.178 117.1,35.178 	"/>
	<polygon clip-path="url(#SVGID_2_)" fill="#FFFFFF" points="121.917,41.445 119.904,35.178 118.617,35.178 121.436,43.75 
		122.399,43.75 125.219,35.178 123.931,35.178 	"/>
	<polygon clip-path="url(#SVGID_2_)" fill="#FFFFFF" points="125.513,43.75 130.966,43.75 130.966,42.621 126.736,42.621 
		126.736,39.994 130.341,39.994 130.341,38.865 126.736,38.865 126.736,36.307 130.966,36.307 130.966,35.178 125.513,35.178 	"/>
	<path clip-path="url(#SVGID_2_)" fill="#FFFFFF" d="M137.809,37.639c0-1.473-1.049-2.46-2.611-2.46h-3.328v8.571h1.223v-3.651
		h1.699l1.873,3.651h1.417l-1.982-3.789C137.158,39.652,137.809,38.78,137.809,37.639 M136.585,37.649
		c0,0.846-0.534,1.331-1.469,1.331h-2.024v-2.673h2.024C136.051,36.308,136.585,36.797,136.585,37.649"/>
	<path clip-path="url(#SVGID_2_)" fill="#FFFFFF" d="M141.611,36.238c0.934,0,1.617,0.575,1.832,1.542l0.029,0.134h1.22l-0.033-0.2
		c-0.267-1.583-1.463-2.605-3.048-2.605c-0.862,0-1.633,0.313-2.226,0.905c-0.824,0.825-0.824,1.703-0.824,3.45
		c0,1.748,0,2.626,0.824,3.451c0.585,0.583,1.375,0.905,2.226,0.905c0.898,0,1.724-0.356,2.322-1.003
		c0.527-0.563,0.751-1.233,0.751-2.243v-1.479h-3.245v1.118h2.023v0.452c0,0.619-0.122,1.019-0.423,1.382
		c-0.338,0.408-0.858,0.643-1.429,0.643c-0.502,0-0.975-0.191-1.299-0.526c-0.467-0.478-0.529-0.976-0.529-2.7
		c0-1.716,0.063-2.211,0.53-2.688C140.644,36.434,141.117,36.238,141.611,36.238"/>
	<polygon clip-path="url(#SVGID_2_)" fill="#FFFFFF" points="145.808,43.75 151.261,43.75 151.261,42.621 147.031,42.621 
		147.031,39.994 150.637,39.994 150.637,38.865 147.031,38.865 147.031,36.307 151.261,36.307 151.261,35.178 145.808,35.178 	"/>
	<polygon clip-path="url(#SVGID_2_)" fill="#FFFFFF" points="157.366,41.357 153.262,35.178 152.165,35.178 152.165,43.75 
		153.388,43.75 153.388,37.55 157.491,43.75 158.589,43.75 158.589,35.178 157.366,35.178 	"/>
	<path clip-path="url(#SVGID_2_)" fill="#FFFFFF" d="M162.785,36.238c0.908,0,1.576,0.571,1.785,1.528l0.029,0.137h1.246
		l-0.037-0.203c-0.286-1.599-1.445-2.592-3.023-2.592c-0.852,0-1.642,0.321-2.226,0.905c-0.824,0.825-0.824,1.703-0.824,3.45
		c0,1.748,0,2.626,0.824,3.451c0.584,0.583,1.374,0.905,2.226,0.905c1.592,0,2.749-0.994,3.023-2.594l0.036-0.201h-1.222
		l-0.029,0.136c-0.209,0.958-0.885,1.529-1.809,1.529c-0.502,0-0.975-0.191-1.299-0.526c-0.467-0.478-0.529-0.976-0.529-2.7
		s0.063-2.223,0.529-2.7C161.811,36.43,162.283,36.238,162.785,36.238"/>
	<polygon clip-path="url(#SVGID_2_)" fill="#FFFFFF" points="172.284,36.308 172.284,35.178 166.831,35.178 166.831,43.75 
		172.284,43.75 172.284,42.621 168.055,42.621 168.055,39.994 171.659,39.994 171.659,38.865 168.055,38.865 168.055,36.308 	"/>
	<path clip-path="url(#SVGID_2_)" fill="#FFFFFF" d="M128.447,17.068h-1.976c-0.023,0-0.049,0.003-0.072,0.008
		c-0.021-0.004-0.042-0.008-0.063-0.008h-1.458c-0.144,0-0.269,0.096-0.313,0.238l-1.437,3.352c-0.101,0.317-0.525,0.317-0.625,0
		l-1.438-3.352c-0.044-0.142-0.17-0.238-0.312-0.238h-1.409c-0.031,0-0.06,0.005-0.089,0.014c-0.028-0.009-0.058-0.014-0.089-0.014
		h-2.023c-0.373,0-0.676,0.302-0.676,0.675v10.623c0,0.372,0.303,0.675,0.676,0.675h2.023c0.186,0,0.337-0.151,0.337-0.338v-3.786
		h2.049v3.43c0,0.383,0.294,0.694,0.658,0.694h1.211c0.364,0,0.658-0.312,0.658-0.694v-3.43h2.056v3.449
		c0,0.372,0.302,0.675,0.675,0.675h1.638c0.372,0,0.675-0.303,0.675-0.675V17.743C129.122,17.37,128.819,17.068,128.447,17.068
		 M119.503,19.01l2.021,4.438h-2.021V19.01z M124.106,23.448l2.028-4.309v4.309H124.106z"/>
	<path clip-path="url(#SVGID_2_)" fill="#FFFFFF" d="M111.024,7.778V7.126c0-0.192-0.154-0.347-0.347-0.347h-8.729V4.971
		c0-0.192-0.153-0.346-0.347-0.346h-3.868c-0.19,0-0.346,0.154-0.346,0.346v1.808h-10.66c-0.383,0-0.692,0.311-0.692,0.693v20.81
		c0,0.383,0.31,0.692,0.692,0.692h2.734c0.382,0,0.692-0.31,0.692-0.692V8.471c0-0.192,0.155-0.347,0.348-0.347h20.175
		C110.87,8.124,111.024,7.969,111.024,7.778"/>
	<path clip-path="url(#SVGID_2_)" fill="#FFFFFF" d="M116.805,7.373h11.979c0.186,0,0.337-0.151,0.337-0.337V6.243
		c0-0.186-0.151-0.338-0.337-0.338h-11.979c-0.187,0-0.338,0.152-0.338,0.338v0.793C116.467,7.222,116.618,7.373,116.805,7.373"/>
	<path clip-path="url(#SVGID_2_)" fill="#FFFFFF" d="M128.464,9.063h-11.338c-0.364,0-0.659,0.311-0.659,0.694v4.27
		c0,0.957,0.737,1.733,1.644,1.733h9.367c0.908,0,1.645-0.776,1.645-1.733v-4.27C129.122,9.374,128.828,9.063,128.464,9.063
		 M125.939,13.946c0,0.191-0.146,0.347-0.329,0.347h-5.633c-0.182,0-0.328-0.156-0.328-0.347v-3.068
		c0-0.192,0.146-0.347,0.328-0.347h5.633c0.183,0,0.329,0.155,0.329,0.347V13.946z"/>
	<path clip-path="url(#SVGID_2_)" fill="#FFFFFF" d="M141.844,8.96h-3.657V5.418c0-0.383-0.312-0.693-0.694-0.693h-1.735
		c-0.383,0-0.692,0.31-0.692,0.693V8.96h-3.659c-0.382,0-0.693,0.311-0.693,0.694v12.828c0,0.384,0.312,0.694,0.693,0.694h3.659
		v4.219h-4.005c-0.192,0-0.348,0.154-0.348,0.346v0.824c0,0.19,0.155,0.347,0.348,0.347h10.784c0.384,0,0.693-0.31,0.693-0.694
		V25.94c0-0.383-0.31-0.693-0.693-0.693h-1.853c-0.383,0-0.693,0.311-0.693,0.693v1.107c0,0.191-0.154,0.348-0.347,0.348h-0.765
		v-4.219h2.618c0.957,0,1.732-0.776,1.732-1.734V9.654C142.537,9.271,142.228,8.96,141.844,8.96 M133.829,21.312V10.824
		c0-0.191,0.155-0.346,0.347-0.346h1.012v11.181h-1.012C133.984,21.659,133.829,21.503,133.829,21.312 M139.421,21.312
		c0,0.191-0.154,0.347-0.347,0.347h-1.01V10.478h1.01c0.192,0,0.347,0.155,0.347,0.346V21.312z"/>
	<path clip-path="url(#SVGID_2_)" fill="#FFFFFF" d="M169.746,18.173h-21.041c-0.385,0-0.698,0.315-0.698,0.704v6.866
		c0,1.75,1.406,3.17,3.14,3.17h16.157c1.734,0,3.14-1.42,3.14-3.17v-6.866C170.443,18.488,170.13,18.173,169.746,18.173
		 M165.853,25.661c0,0.972-0.78,1.76-1.743,1.76h-9.642c-0.963,0-1.744-0.788-1.744-1.76v-5.646c0-0.194,0.156-0.352,0.35-0.352
		h12.43c0.194,0,0.35,0.158,0.35,0.352V25.661z"/>
	<path clip-path="url(#SVGID_2_)" fill="#FFFFFF" d="M172.151,14.973l-4.745-8.314c-0.318-0.522-0.881-0.839-1.487-0.839h-13.188
		c-0.605,0-1.169,0.317-1.485,0.839l-4.746,8.314c-0.286,0.47,0.049,1.073,0.594,1.073h3.537c0.123,0,0.237-0.065,0.299-0.171
		l0.783-1.623h15.225l0.782,1.623c0.064,0.106,0.177,0.171,0.3,0.171h3.537C172.102,16.046,172.436,15.443,172.151,14.973
		 M152.604,12.762l3.045-5.405c0.063-0.106,0.178-0.171,0.3-0.171h6.754c0.122,0,0.234,0.065,0.298,0.171l3.045,5.405H152.604z"/>
	<path clip-path="url(#SVGID_2_)" fill="#FFFFFF" d="M81.225,11.304H70.912V5.907c0-0.383-0.311-0.693-0.694-0.693h-3.617
		c-0.382,0-0.693,0.31-0.693,0.693v5.397H55.583c-0.191,0-0.346,0.155-0.346,0.346v0.775c0,0.191,0.155,0.346,0.346,0.346h10.039
		l-9.305,15.095c-0.341,0.457-0.015,1.108,0.556,1.108h3.08c0.219,0,0.425-0.104,0.556-0.278l7.623-12.539
		c0.139-0.186,0.417-0.186,0.556,0l7.623,12.539c0.131,0.175,0.337,0.278,0.556,0.278h3.08c0.571,0,0.897-0.651,0.556-1.108
		l-9.306-15.095h10.028c0.191,0,0.347-0.155,0.347-0.346V11.65C81.571,11.459,81.416,11.304,81.225,11.304"/>
	<path clip-path="url(#SVGID_2_)" fill="#FFFFFF" d="M111.778,13.995h-1.202v-2.854c0-0.383-0.311-0.693-0.692-0.693h-6.956V9.134
		c0-0.192-0.155-0.347-0.346-0.347h-3.868c-0.191,0-0.348,0.155-0.348,0.347v1.314h-6.505c-0.191,0-0.347,0.155-0.347,0.346v0.652
		c0,0.192,0.155,0.347,0.347,0.347h6.505v2.202h-6.505c-0.191,0-0.347,0.154-0.347,0.346v0.774c0,0.192,0.155,0.347,0.347,0.347
		h6.505v2.324h-6.505c-0.191,0-0.347,0.155-0.347,0.346v0.652c0,0.192,0.155,0.347,0.347,0.347h6.505v2.204h-6.035
		c-0.384,0-0.694,0.311-0.694,0.693v4.932c0,1.148,0.932,2.08,2.081,2.08h14.535c1.147,0,2.08-0.932,2.08-2.08v-4.932
		c0-0.382-0.312-0.693-0.694-0.693h-6.711v-2.204h5.438c1.222,0,2.211-0.99,2.211-2.211v-1.458h1.202
		c0.192,0,0.348-0.155,0.348-0.347v-0.774C112.126,14.149,111.971,13.995,111.778,13.995 M105.771,23.149v3.383
		c0,0.573-0.466,1.04-1.04,1.04h-7.492c-0.574,0-1.04-0.467-1.04-1.04v-3.383c0-0.191,0.155-0.346,0.348-0.346h8.879
		C105.615,22.803,105.771,22.958,105.771,23.149 M102.928,11.793h3.049c0.192,0,0.347,0.155,0.347,0.347v1.855h-3.396V11.793z
		 M106.323,17.439c0,0.191-0.154,0.347-0.347,0.347h-3.049v-2.324h3.396V17.439z"/>
	<path clip-path="url(#SVGID_2_)" fill="#C9171D" d="M20.919,24.283c-0.062,0.678-0.529,1.23-1.149,1.359
		c-0.814,0.169-1.93,0.398-2.689,0.558c-0.503,0.104-0.88,0.555-0.927,1.104l-0.87,10.31c-0.069,0.816,0.593,1.486,1.344,1.358
		c9.675-1.637,12.388-8.274,12.388-11.779c0-7.917-8.852-12.062-15.679-12.078c-1.628-0.004-3.224,0.186-4.709,0.566
		c-0.626,0.161-1.084,0.742-1.142,1.434l-0.592,7.178c-0.048,0.577,0.465,1.02,0.977,0.844l12.188-4.182
		c0.568-0.194,1.135,0.301,1.077,0.94L20.919,24.283z"/>
	<path clip-path="url(#SVGID_2_)" fill="#C9171D" d="M38.39,16.55C33.856,7.736,21.891,3.271,14.455,3.969
		c2.225-2.107,8.703-0.688,9.349-0.545c0.976,0.214,1.855-0.103,2.203-1.14c0.396-1.275-0.445-1.983-0.861-2.201
		c-0.083-0.057-0.183-0.088-0.289-0.082c-0.274,0.015-0.485,0.268-0.471,0.564c0.014,0.296,0.248,0.523,0.523,0.508
		c0.145-0.008,0.271-0.084,0.356-0.195C25.355,1.07,25.429,1.375,25.3,1.74c-0.145,0.413-0.63,0.692-1.348,0.526
		c-0.535-0.123-2.597-0.728-3.201-0.852C14.14,0.06,8.986,2.409,6.658,4.199C6.15,4.589,5.996,5.326,6.29,5.918l0.146,0.294
		C6.399,6.226,6.363,6.239,6.328,6.254c-0.949,0.379-1.962,1.02-2.63,1.48C3.259,8.035,3.099,8.639,3.324,9.143l0.134,0.301
		c0,0-1.119,0.487-2.668,1.447l-0.082-0.166c-0.066-0.135-0.23-0.179-0.349-0.094c-0.331,0.234-0.451,0.696-0.282,1.082l0.42,0.955
		c0.427,0.97,1.535,1.341,2.39,0.792c1.728-1.109,4.714-2.439,9.927-2.693c2.389-0.116,5.231,0.295,7.839,1.168
		c5.82,2.092,11.529,6.568,11.526,14.14c0.005,8.441-8.715,15.845-19.382,14.915c-1.219-0.106-2.128-1.171-2.012-2.484l0.92-10.518
		c0.035-0.396-0.293-0.714-0.653-0.637l-3.62,0.778c-0.551,0.119-0.962,0.617-1.007,1.22L5.443,42.407
		c-0.085,1.139,0.491,4.186,4.13,4.399c0.626,0.036,1.247,0.175,2.842,0.189c0.044,0.002,0.911,0.029,2.316-0.051
		c0.566-0.026,1.201-0.063,1.918-0.114c6.879-0.484,23.445-4.396,24.101-21.163C40.875,22.471,40.018,19.353,38.39,16.55"/>
</g>
</svg>
